# xmcd
#
# Track frame offsets: 
#        150
#        12147
#        25508
#        35368
#        48921
#        63352
#        76431
#        89705
#        101638
#        116821
#        130026
#        142938
#        157188
#        171716
#        186300
#        198112
#        210932
#        225583
#        239963
#        253636
#
# Disc length: 3527 seconds
#
# Revision: 4
# Processed by: cddbd v1.4PL0 Copyright (c) Steve Scherf et al.
# Submitted via: ExactAudioCopy v0.95a3
#
DISCID=140dc514
DTITLE=Various Artist - Nothin' but the Blues #1
DYEAR=1900
DGENRE=Blues
TTITLE0=Robert Johnson - Cross Road Blues
TTITLE1=Bessie Smith - Reckless Blues
TTITLE2=Leadbelly - How Long
TTITLE3=Big Bill Broonzy - I'm Woke Up Now
TTITLE4=Sonny Boy Williamson - You're An Old Lady
TTITLE5=Washboard Sam - She Fooled Me
TTITLE6=Bessie Jackson - Groceries on the Shelf
TTITLE7=Little Buddy Doyle - Sweet Man Blues
TTITLE8=Muddy Waters - 32-20 Blues
TTITLE9=Willie Brown - Future Blues
TTITLE10=Bessie Smith - Preaching the Blues
TTITLE11=Bukka White - Panama Limited Blues
TTITLE12=Big Jo Williams - Break 'Em on Down
TTITLE13=Leadbelly - In New Orleans
TTITLE14=Robert Johnson - Hell Hound on My Trail
TTITLE15=Bertha Idaho - Down on Pennsylvania Avenue
TTITLE16=Joe McCoy - Weed Smokers Dream
TTITLE17=Ma Rainey - Sleep Talking Blues
TTITLE18=Bumble Bee Slim - Feather Bed Blues
TTITLE19=Cripple Clarence Lofton - Pitchin' Boogie
EXTD=
EXTT0=
EXTT1=
EXTT2=
EXTT3=
EXTT4=
EXTT5=
EXTT6=
EXTT7=
EXTT8=
EXTT9=
EXTT10=
EXTT11=
EXTT12=
EXTT13=
EXTT14=
EXTT15=
EXTT16=
EXTT17=
EXTT18=
EXTT19=
PLAYORDER=
